# Blender v2.93.1 OBJ File: ''
# www.blender.org
mtllib Tuske.mtl
o Cylinder
v 0.000000 -1.000000 -0.240775
v 0.000000 1.000000 -0.240775
v 0.092141 -1.000000 -0.222447
v 0.092141 1.000000 -0.222447
v 0.170254 -1.000000 -0.170254
v 0.170254 1.000000 -0.170254
v 0.222447 -1.000000 -0.092141
v 0.222447 1.000000 -0.092141
v 0.240775 -1.000000 0.000000
v 0.240775 1.000000 0.000000
v 0.222447 -1.000000 0.092141
v 0.222447 1.000000 0.092141
v 0.170254 -1.000000 0.170254
v 0.170254 1.000000 0.170254
v 0.092141 -1.000000 0.222447
v 0.092141 1.000000 0.222447
v -0.000000 -1.000000 0.240775
v -0.000000 1.000000 0.240775
v -0.092141 -1.000000 0.222447
v -0.092141 1.000000 0.222447
v -0.170254 -1.000000 0.170254
v -0.170254 1.000000 0.170254
v -0.222447 -1.000000 0.092141
v -0.222447 1.000000 0.092141
v -0.240775 -1.000000 0.000000
v -0.240775 1.000000 0.000000
v -0.222447 -1.000000 -0.092141
v -0.222447 1.000000 -0.092141
v -0.170254 -1.000000 -0.170254
v -0.170254 1.000000 -0.170254
v -0.092141 -1.000000 -0.222447
v -0.092141 1.000000 -0.222447
v 0.000000 1.676996 0.000000
vt 1.000000 1.000000
vt 0.937500 0.500000
vt 1.000000 0.500000
vt 0.875000 1.000000
vt 0.812500 0.500000
vt 0.875000 0.500000
vt 0.750000 1.000000
vt 0.687500 0.500000
vt 0.750000 0.500000
vt 0.625000 1.000000
vt 0.562500 0.500000
vt 0.625000 0.500000
vt 0.500000 1.000000
vt 0.437500 0.500000
vt 0.500000 0.500000
vt 0.375000 1.000000
vt 0.312500 0.500000
vt 0.375000 0.500000
vt 0.250000 1.000000
vt 0.187500 0.500000
vt 0.250000 0.500000
vt 0.125000 1.000000
vt 0.062500 0.500000
vt 0.125000 0.500000
vt 0.658156 0.471731
vt 0.971731 0.341844
vt 0.841844 0.028269
vt 0.937500 1.000000
vt 0.812500 1.000000
vt 0.687500 1.000000
vt 0.562500 1.000000
vt 0.437500 1.000000
vt 0.312500 1.000000
vt 0.187500 1.000000
vt 0.062500 1.000000
vt 0.750000 0.490000
vt 0.841844 0.471731
vt 0.919706 0.419706
vt 0.990000 0.250000
vt 0.971731 0.158156
vt 0.919706 0.080294
vt 0.750000 0.010000
vt 0.658156 0.028269
vt 0.580294 0.080294
vt 0.528269 0.158156
vt 0.510000 0.250000
vt 0.528269 0.341844
vt 0.580294 0.419706
vt 0.187500 1.000000
vt 0.562500 1.000000
vt 0.937500 1.000000
vt 0.312500 1.000000
vt 0.687500 1.000000
vt 0.062500 1.000000
vt 0.437500 1.000000
vt 0.812500 1.000000
vt 0.000000 0.500000
vt 0.000000 1.000000
vt 0.375000 1.000000
vt 0.750000 1.000000
vt 0.000000 1.000000
vt 0.125000 1.000000
vt 0.500000 1.000000
vt 0.875000 1.000000
vt 0.250000 1.000000
vt 0.625000 1.000000
vn 0.1951 0.0000 -0.9808
vn 0.8315 0.0000 -0.5556
vn 0.9808 0.0000 0.1951
vn 0.5556 0.0000 0.8315
vn -0.1951 0.0000 0.9808
vn -0.8315 0.0000 0.5556
vn -0.9808 0.0000 -0.1951
vn -0.5556 0.0000 -0.8315
vn 0.0000 -1.0000 0.0000
vn -0.9109 0.1666 -0.3773
vn -0.9860 0.1666 0.0000
vn 0.0000 1.0000 0.0000
vn 0.3773 0.1666 0.9109
vn 0.6972 0.1666 0.6972
vn 0.3773 0.1666 -0.9109
vn 0.0000 0.1666 -0.9860
vn -0.9109 0.1666 0.3773
vn -0.6972 0.1666 0.6972
vn 0.9109 0.1666 0.3773
vn 0.9860 0.1666 0.0000
vn -0.3773 0.1666 -0.9109
vn -0.6972 0.1666 -0.6972
vn -0.3773 0.1666 0.9109
vn 0.0000 0.1666 0.9860
vn 0.9109 0.1666 -0.3773
vn 0.6972 0.1666 -0.6972
vn 0.5556 0.0000 -0.8315
vn 0.9808 0.0000 -0.1951
vn 0.8315 0.0000 0.5556
vn 0.1951 0.0000 0.9808
vn -0.5556 0.0000 0.8315
vn -0.9808 0.0000 0.1951
vn -0.8315 0.0000 -0.5556
vn -0.1951 0.0000 -0.9808
usemtl Material.001
s off
f 2/1/1 3/2/1 1/3/1
f 6/4/2 7/5/2 5/6/2
f 10/7/3 11/8/3 9/9/3
f 14/10/4 15/11/4 13/12/4
f 18/13/5 19/14/5 17/15/5
f 22/16/6 23/17/6 21/18/6
f 26/19/7 27/20/7 25/21/7
f 30/22/8 31/23/8 29/24/8
f 31/25/9 7/26/9 15/27/9
f 2/1/1 4/28/1 3/2/1
f 6/4/2 8/29/2 7/5/2
f 10/7/3 12/30/3 11/8/3
f 14/10/4 16/31/4 15/11/4
f 18/13/5 20/32/5 19/14/5
f 22/16/6 24/33/6 23/17/6
f 26/19/7 28/34/7 27/20/7
f 30/22/8 32/35/8 31/23/8
f 31/25/9 1/36/9 7/26/9
f 1/36/9 3/37/9 7/26/9
f 3/37/9 5/38/9 7/26/9
f 7/26/9 9/39/9 11/40/9
f 11/40/9 13/41/9 15/27/9
f 15/27/9 17/42/9 19/43/9
f 19/43/9 21/44/9 23/45/9
f 23/45/9 25/46/9 27/47/9
f 27/47/9 29/48/9 31/25/9
f 7/26/9 11/40/9 15/27/9
f 15/27/9 19/43/9 23/45/9
f 23/45/9 27/47/9 15/27/9
f 27/47/9 31/25/9 15/27/9
s 1
f 28/34/10 26/19/11 33/49/12
f 16/31/13 14/10/14 33/50/12
f 4/28/15 2/1/16 33/51/12
f 24/33/17 22/16/18 33/52/12
f 12/30/19 10/7/20 33/53/12
f 32/35/21 30/22/22 33/54/12
f 20/32/23 18/13/24 33/55/12
f 8/29/25 6/4/26 33/56/12
usemtl Material
s off
f 4/28/27 5/6/27 3/2/27
f 8/29/28 9/9/28 7/5/28
f 12/30/29 13/12/29 11/8/29
f 16/31/30 17/15/30 15/11/30
f 20/32/31 21/18/31 19/14/31
f 24/33/32 25/21/32 23/17/32
f 28/34/33 29/24/33 27/20/33
f 32/35/34 1/57/34 31/23/34
f 4/28/27 6/4/27 5/6/27
f 8/29/28 10/7/28 9/9/28
f 12/30/29 14/10/29 13/12/29
f 16/31/30 18/13/30 17/15/30
f 20/32/31 22/16/31 21/18/31
f 24/33/32 26/19/32 25/21/32
f 28/34/33 30/22/33 29/24/33
f 32/35/34 2/58/34 1/57/34
s 1
f 22/16/18 20/32/23 33/59/12
f 10/7/20 8/29/25 33/60/12
f 2/58/16 32/35/21 33/61/12
f 30/22/22 28/34/10 33/62/12
f 18/13/24 16/31/13 33/63/12
f 6/4/26 4/28/15 33/64/12
f 26/19/11 24/33/17 33/65/12
f 14/10/14 12/30/19 33/66/12
